<?xml version="1.0" encoding="UTF-8" standalone="no"?>
<!DOCTYPE svg PUBLIC "-//W3C//DTD SVG 1.1//EN"
 "http://www.w3.org/Graphics/SVG/1.1/DTD/svg11.dtd">
<!-- Generated by graphviz version 2.24.0 (20090616.2323)
 -->
<!-- Title: G Pages: 1 -->
<svg width="686pt" height="2298pt"
 viewBox="0.00 0.00 686.00 2298.00" xmlns="http://www.w3.org/2000/svg" xmlns:xlink="http://www.w3.org/1999/xlink">
<g id="graph1" class="graph" transform="scale(1 1) rotate(0) translate(4 2294)">
<title>G</title>
<polygon fill="white" stroke="white" points="-4,5 -4,-2294 683,-2294 683,5 -4,5"/>
<g id="graph2" class="cluster"><title>cluster_PAGI</title>
<polyline fill="none" stroke="gray" points="20,-44 658,-44 "/>
<path fill="none" stroke="gray" d="M658,-44C664,-44 670,-50 670,-56"/>
<polyline fill="none" stroke="gray" points="670,-56 670,-2270 "/>
<path fill="none" stroke="gray" d="M670,-2270C670,-2276 664,-2282 658,-2282"/>
<polyline fill="none" stroke="gray" points="658,-2282 20,-2282 "/>
<path fill="none" stroke="gray" d="M20,-2282C14,-2282 8,-2276 8,-2270"/>
<polyline fill="none" stroke="gray" points="8,-2270 8,-56 "/>
<path fill="none" stroke="gray" d="M8,-56C8,-50 14,-44 20,-44"/>
<text text-anchor="middle" x="339" y="-2268.1" font-family="Times Roman,serif" font-size="11.00" fill="gray">PAGI</text>
</g>
<g id="graph3" class="cluster"><title>cluster_PAGI\Application</title>
<polyline fill="none" stroke="gray" points="493,-2180 603,-2180 "/>
<path fill="none" stroke="gray" d="M603,-2180C609,-2180 615,-2186 615,-2192"/>
<polyline fill="none" stroke="gray" points="615,-2192 615,-2241 "/>
<path fill="none" stroke="gray" d="M615,-2241C615,-2247 609,-2253 603,-2253"/>
<polyline fill="none" stroke="gray" points="603,-2253 493,-2253 "/>
<path fill="none" stroke="gray" d="M493,-2253C487,-2253 481,-2247 481,-2241"/>
<polyline fill="none" stroke="gray" points="481,-2241 481,-2192 "/>
<path fill="none" stroke="gray" d="M481,-2192C481,-2186 487,-2180 493,-2180"/>
<text text-anchor="middle" x="548" y="-2239.1" font-family="Times Roman,serif" font-size="11.00" fill="gray">Application</text>
</g>
<g id="graph4" class="cluster"><title>cluster_PAGI\Autoloader</title>
<polyline fill="none" stroke="gray" points="509,-2099 587,-2099 "/>
<path fill="none" stroke="gray" d="M587,-2099C593,-2099 599,-2105 599,-2111"/>
<polyline fill="none" stroke="gray" points="599,-2111 599,-2160 "/>
<path fill="none" stroke="gray" d="M599,-2160C599,-2166 593,-2172 587,-2172"/>
<polyline fill="none" stroke="gray" points="587,-2172 509,-2172 "/>
<path fill="none" stroke="gray" d="M509,-2172C503,-2172 497,-2166 497,-2160"/>
<polyline fill="none" stroke="gray" points="497,-2160 497,-2111 "/>
<path fill="none" stroke="gray" d="M497,-2111C497,-2105 503,-2099 509,-2099"/>
<text text-anchor="middle" x="548" y="-2158.1" font-family="Times Roman,serif" font-size="11.00" fill="gray">Autoloader</text>
</g>
<g id="graph5" class="cluster"><title>cluster_PAGI\CDR</title>
<polyline fill="none" stroke="gray" points="505,-1935 591,-1935 "/>
<path fill="none" stroke="gray" d="M591,-1935C597,-1935 603,-1941 603,-1947"/>
<polyline fill="none" stroke="gray" points="603,-1947 603,-2079 "/>
<path fill="none" stroke="gray" d="M603,-2079C603,-2085 597,-2091 591,-2091"/>
<polyline fill="none" stroke="gray" points="591,-2091 505,-2091 "/>
<path fill="none" stroke="gray" d="M505,-2091C499,-2091 493,-2085 493,-2079"/>
<polyline fill="none" stroke="gray" points="493,-2079 493,-1947 "/>
<path fill="none" stroke="gray" d="M493,-1947C493,-1941 499,-1935 505,-1935"/>
<text text-anchor="middle" x="548" y="-2077.1" font-family="Times Roman,serif" font-size="11.00" fill="gray">CDR</text>
</g>
<g id="graph6" class="cluster"><title>cluster_PAGI\CDR\Impl</title>
<polyline fill="none" stroke="gray" points="513,-1989 583,-1989 "/>
<path fill="none" stroke="gray" d="M583,-1989C589,-1989 595,-1995 595,-2001"/>
<polyline fill="none" stroke="gray" points="595,-2001 595,-2050 "/>
<path fill="none" stroke="gray" d="M595,-2050C595,-2056 589,-2062 583,-2062"/>
<polyline fill="none" stroke="gray" points="583,-2062 513,-2062 "/>
<path fill="none" stroke="gray" d="M513,-2062C507,-2062 501,-2056 501,-2050"/>
<polyline fill="none" stroke="gray" points="501,-2050 501,-2001 "/>
<path fill="none" stroke="gray" d="M501,-2001C501,-1995 507,-1989 513,-1989"/>
<text text-anchor="middle" x="548" y="-2048.1" font-family="Times Roman,serif" font-size="11.00" fill="gray">Impl</text>
</g>
<g id="graph8" class="cluster"><title>cluster_PAGI\CallSpool</title>
<polyline fill="none" stroke="gray" points="475,-1636 621,-1636 "/>
<path fill="none" stroke="gray" d="M621,-1636C627,-1636 633,-1642 633,-1648"/>
<polyline fill="none" stroke="gray" points="633,-1648 633,-1915 "/>
<path fill="none" stroke="gray" d="M633,-1915C633,-1921 627,-1927 621,-1927"/>
<polyline fill="none" stroke="gray" points="621,-1927 475,-1927 "/>
<path fill="none" stroke="gray" d="M475,-1927C469,-1927 463,-1921 463,-1915"/>
<polyline fill="none" stroke="gray" points="463,-1915 463,-1648 "/>
<path fill="none" stroke="gray" d="M463,-1648C463,-1642 469,-1636 475,-1636"/>
<text text-anchor="middle" x="548" y="-1913.1" font-family="Times Roman,serif" font-size="11.00" fill="gray">CallSpool</text>
</g>
<g id="graph9" class="cluster"><title>cluster_PAGI\CallSpool\Exception</title>
<polyline fill="none" stroke="gray" points="483,-1825 613,-1825 "/>
<path fill="none" stroke="gray" d="M613,-1825C619,-1825 625,-1831 625,-1837"/>
<polyline fill="none" stroke="gray" points="625,-1837 625,-1886 "/>
<path fill="none" stroke="gray" d="M625,-1886C625,-1892 619,-1898 613,-1898"/>
<polyline fill="none" stroke="gray" points="613,-1898 483,-1898 "/>
<path fill="none" stroke="gray" d="M483,-1898C477,-1898 471,-1892 471,-1886"/>
<polyline fill="none" stroke="gray" points="471,-1886 471,-1837 "/>
<path fill="none" stroke="gray" d="M471,-1837C471,-1831 477,-1825 483,-1825"/>
<text text-anchor="middle" x="548" y="-1884.1" font-family="Times Roman,serif" font-size="11.00" fill="gray">Exception</text>
</g>
<g id="graph10" class="cluster"><title>cluster_PAGI\CallSpool\Impl</title>
<polyline fill="none" stroke="gray" points="500,-1744 596,-1744 "/>
<path fill="none" stroke="gray" d="M596,-1744C602,-1744 608,-1750 608,-1756"/>
<polyline fill="none" stroke="gray" points="608,-1756 608,-1805 "/>
<path fill="none" stroke="gray" d="M608,-1805C608,-1811 602,-1817 596,-1817"/>
<polyline fill="none" stroke="gray" points="596,-1817 500,-1817 "/>
<path fill="none" stroke="gray" d="M500,-1817C494,-1817 488,-1811 488,-1805"/>
<polyline fill="none" stroke="gray" points="488,-1805 488,-1756 "/>
<path fill="none" stroke="gray" d="M488,-1756C488,-1750 494,-1744 500,-1744"/>
<text text-anchor="middle" x="548" y="-1803.1" font-family="Times Roman,serif" font-size="11.00" fill="gray">Impl</text>
</g>
<g id="graph11" class="cluster"><title>cluster_PAGI\Exception</title>
<polyline fill="none" stroke="gray" points="249,-1285 650,-1285 "/>
<path fill="none" stroke="gray" d="M650,-1285C656,-1285 662,-1291 662,-1297"/>
<polyline fill="none" stroke="gray" points="662,-1297 662,-1616 "/>
<path fill="none" stroke="gray" d="M662,-1616C662,-1622 656,-1628 650,-1628"/>
<polyline fill="none" stroke="gray" points="650,-1628 249,-1628 "/>
<path fill="none" stroke="gray" d="M249,-1628C243,-1628 237,-1622 237,-1616"/>
<polyline fill="none" stroke="gray" points="237,-1616 237,-1297 "/>
<path fill="none" stroke="gray" d="M237,-1297C237,-1291 243,-1285 249,-1285"/>
<text text-anchor="middle" x="449.5" y="-1614.1" font-family="Times Roman,serif" font-size="11.00" fill="gray">Exception</text>
</g>
<g id="graph12" class="cluster"><title>cluster_PAGI\CallerId</title>
<polyline fill="none" stroke="gray" points="488,-1121 608,-1121 "/>
<path fill="none" stroke="gray" d="M608,-1121C614,-1121 620,-1127 620,-1133"/>
<polyline fill="none" stroke="gray" points="620,-1133 620,-1265 "/>
<path fill="none" stroke="gray" d="M620,-1265C620,-1271 614,-1277 608,-1277"/>
<polyline fill="none" stroke="gray" points="608,-1277 488,-1277 "/>
<path fill="none" stroke="gray" d="M488,-1277C482,-1277 476,-1271 476,-1265"/>
<polyline fill="none" stroke="gray" points="476,-1265 476,-1133 "/>
<path fill="none" stroke="gray" d="M476,-1133C476,-1127 482,-1121 488,-1121"/>
<text text-anchor="middle" x="548" y="-1263.1" font-family="Times Roman,serif" font-size="11.00" fill="gray">CallerId</text>
</g>
<g id="graph13" class="cluster"><title>cluster_PAGI\CallerId\Impl</title>
<polyline fill="none" stroke="gray" points="496,-1175 600,-1175 "/>
<path fill="none" stroke="gray" d="M600,-1175C606,-1175 612,-1181 612,-1187"/>
<polyline fill="none" stroke="gray" points="612,-1187 612,-1236 "/>
<path fill="none" stroke="gray" d="M612,-1236C612,-1242 606,-1248 600,-1248"/>
<polyline fill="none" stroke="gray" points="600,-1248 496,-1248 "/>
<path fill="none" stroke="gray" d="M496,-1248C490,-1248 484,-1242 484,-1236"/>
<polyline fill="none" stroke="gray" points="484,-1236 484,-1187 "/>
<path fill="none" stroke="gray" d="M484,-1187C484,-1181 490,-1175 496,-1175"/>
<text text-anchor="middle" x="548" y="-1234.1" font-family="Times Roman,serif" font-size="11.00" fill="gray">Impl</text>
</g>
<g id="graph14" class="cluster"><title>cluster_PAGI\ChannelVariables</title>
<polyline fill="none" stroke="gray" points="462,-957 634,-957 "/>
<path fill="none" stroke="gray" d="M634,-957C640,-957 646,-963 646,-969"/>
<polyline fill="none" stroke="gray" points="646,-969 646,-1101 "/>
<path fill="none" stroke="gray" d="M646,-1101C646,-1107 640,-1113 634,-1113"/>
<polyline fill="none" stroke="gray" points="634,-1113 462,-1113 "/>
<path fill="none" stroke="gray" d="M462,-1113C456,-1113 450,-1107 450,-1101"/>
<polyline fill="none" stroke="gray" points="450,-1101 450,-969 "/>
<path fill="none" stroke="gray" d="M450,-969C450,-963 456,-957 462,-957"/>
<text text-anchor="middle" x="548" y="-1099.1" font-family="Times Roman,serif" font-size="11.00" fill="gray">ChannelVariables</text>
</g>
<g id="graph15" class="cluster"><title>cluster_PAGI\ChannelVariables\Impl</title>
<polyline fill="none" stroke="gray" points="470,-1011 626,-1011 "/>
<path fill="none" stroke="gray" d="M626,-1011C632,-1011 638,-1017 638,-1023"/>
<polyline fill="none" stroke="gray" points="638,-1023 638,-1072 "/>
<path fill="none" stroke="gray" d="M638,-1072C638,-1078 632,-1084 626,-1084"/>
<polyline fill="none" stroke="gray" points="626,-1084 470,-1084 "/>
<path fill="none" stroke="gray" d="M470,-1084C464,-1084 458,-1078 458,-1072"/>
<polyline fill="none" stroke="gray" points="458,-1072 458,-1023 "/>
<path fill="none" stroke="gray" d="M458,-1023C458,-1017 464,-1011 470,-1011"/>
<text text-anchor="middle" x="548" y="-1070.1" font-family="Times Roman,serif" font-size="11.00" fill="gray">Impl</text>
</g>
<g id="graph16" class="cluster"><title>cluster_PAGI\Client</title>
<polyline fill="none" stroke="gray" points="28,-388 608,-388 "/>
<path fill="none" stroke="gray" d="M608,-388C614,-388 620,-394 620,-400"/>
<polyline fill="none" stroke="gray" points="620,-400 620,-937 "/>
<path fill="none" stroke="gray" d="M620,-937C620,-943 614,-949 608,-949"/>
<polyline fill="none" stroke="gray" points="608,-949 28,-949 "/>
<path fill="none" stroke="gray" d="M28,-949C22,-949 16,-943 16,-937"/>
<polyline fill="none" stroke="gray" points="16,-937 16,-400 "/>
<path fill="none" stroke="gray" d="M16,-400C16,-394 22,-388 28,-388"/>
<text text-anchor="middle" x="318" y="-935.1" font-family="Times Roman,serif" font-size="11.00" fill="gray">Client</text>
</g>
<g id="graph17" class="cluster"><title>cluster_PAGI\Client\Impl</title>
<polyline fill="none" stroke="gray" points="510,-847 586,-847 "/>
<path fill="none" stroke="gray" d="M586,-847C592,-847 598,-853 598,-859"/>
<polyline fill="none" stroke="gray" points="598,-859 598,-908 "/>
<path fill="none" stroke="gray" d="M598,-908C598,-914 592,-920 586,-920"/>
<polyline fill="none" stroke="gray" points="586,-920 510,-920 "/>
<path fill="none" stroke="gray" d="M510,-920C504,-920 498,-914 498,-908"/>
<polyline fill="none" stroke="gray" points="498,-908 498,-859 "/>
<path fill="none" stroke="gray" d="M498,-859C498,-853 504,-847 510,-847"/>
<text text-anchor="middle" x="548" y="-906.1" font-family="Times Roman,serif" font-size="11.00" fill="gray">Impl</text>
</g>
<g id="graph18" class="cluster"><title>cluster_PAGI\Client\Result</title>
<polyline fill="none" stroke="gray" points="36,-496 600,-496 "/>
<path fill="none" stroke="gray" d="M600,-496C606,-496 612,-502 612,-508"/>
<polyline fill="none" stroke="gray" points="612,-508 612,-827 "/>
<path fill="none" stroke="gray" d="M612,-827C612,-833 606,-839 600,-839"/>
<polyline fill="none" stroke="gray" points="600,-839 36,-839 "/>
<path fill="none" stroke="gray" d="M36,-839C30,-839 24,-833 24,-827"/>
<polyline fill="none" stroke="gray" points="24,-827 24,-508 "/>
<path fill="none" stroke="gray" d="M24,-508C24,-502 30,-496 36,-496"/>
<text text-anchor="middle" x="318" y="-825.1" font-family="Times Roman,serif" font-size="11.00" fill="gray">Result</text>
</g>
<g id="graph20" class="cluster"><title>cluster_PAGI\DialDescriptor</title>
<polyline fill="none" stroke="gray" points="245,-253 616,-253 "/>
<path fill="none" stroke="gray" d="M616,-253C622,-253 628,-259 628,-265"/>
<polyline fill="none" stroke="gray" points="628,-265 628,-368 "/>
<path fill="none" stroke="gray" d="M628,-368C628,-374 622,-380 616,-380"/>
<polyline fill="none" stroke="gray" points="616,-380 245,-380 "/>
<path fill="none" stroke="gray" d="M245,-380C239,-380 233,-374 233,-368"/>
<polyline fill="none" stroke="gray" points="233,-368 233,-265 "/>
<path fill="none" stroke="gray" d="M233,-265C233,-259 239,-253 245,-253"/>
<text text-anchor="middle" x="430.5" y="-366.1" font-family="Times Roman,serif" font-size="11.00" fill="gray">DialDescriptor</text>
</g>
<g id="graph21" class="cluster"><title>cluster_PAGI\Logger</title>
<polyline fill="none" stroke="gray" points="466,-52 630,-52 "/>
<path fill="none" stroke="gray" d="M630,-52C636,-52 642,-58 642,-64"/>
<polyline fill="none" stroke="gray" points="642,-64 642,-233 "/>
<path fill="none" stroke="gray" d="M642,-233C642,-239 636,-245 630,-245"/>
<polyline fill="none" stroke="gray" points="630,-245 466,-245 "/>
<path fill="none" stroke="gray" d="M466,-245C460,-245 454,-239 454,-233"/>
<polyline fill="none" stroke="gray" points="454,-233 454,-64 "/>
<path fill="none" stroke="gray" d="M454,-64C454,-58 460,-52 466,-52"/>
<text text-anchor="middle" x="548" y="-231.1" font-family="Times Roman,serif" font-size="11.00" fill="gray">Logger</text>
</g>
<g id="graph22" class="cluster"><title>cluster_PAGI\Logger\Asterisk</title>
<polyline fill="none" stroke="gray" points="474,-60 622,-60 "/>
<path fill="none" stroke="gray" d="M622,-60C628,-60 634,-66 634,-72"/>
<polyline fill="none" stroke="gray" points="634,-72 634,-204 "/>
<path fill="none" stroke="gray" d="M634,-204C634,-210 628,-216 622,-216"/>
<polyline fill="none" stroke="gray" points="622,-216 474,-216 "/>
<path fill="none" stroke="gray" d="M474,-216C468,-216 462,-210 462,-204"/>
<polyline fill="none" stroke="gray" points="462,-204 462,-72 "/>
<path fill="none" stroke="gray" d="M462,-72C462,-66 468,-60 474,-60"/>
<text text-anchor="middle" x="548" y="-202.1" font-family="Times Roman,serif" font-size="11.00" fill="gray">Asterisk</text>
</g>
<g id="graph23" class="cluster"><title>cluster_PAGI\Logger\Asterisk\Impl</title>
<polyline fill="none" stroke="gray" points="482,-114 614,-114 "/>
<path fill="none" stroke="gray" d="M614,-114C620,-114 626,-120 626,-126"/>
<polyline fill="none" stroke="gray" points="626,-126 626,-175 "/>
<path fill="none" stroke="gray" d="M626,-175C626,-181 620,-187 614,-187"/>
<polyline fill="none" stroke="gray" points="614,-187 482,-187 "/>
<path fill="none" stroke="gray" d="M482,-187C476,-187 470,-181 470,-175"/>
<polyline fill="none" stroke="gray" points="470,-175 470,-126 "/>
<path fill="none" stroke="gray" d="M470,-126C470,-120 476,-114 482,-114"/>
<text text-anchor="middle" x="548" y="-173.1" font-family="Times Roman,serif" font-size="11.00" fill="gray">Impl</text>
</g>
<!-- \\PAGI\\Application\\PAGIApplication -->
<g id="node3" class="node"><title>\\PAGI\\Application\\PAGIApplication</title>
<a xlink:href="db_Application_PAGIApplication.html" xlink:title="«abstract»&lt;br/&gt;PAGIApplication" target="_parent">
<polygon fill="none" stroke="black" points="607,-2224 489,-2224 489,-2188 607,-2188 607,-2224"/>
<text text-anchor="start" x="514" y="-2211.43" font-family="Courier,monospace" font-size="11.00">«abstract»</text>
<text text-anchor="start" x="497.5" y="-2198.23" font-family="Courier,monospace" font-size="11.00">PAGIApplication</text>
</a>
</g>
<!-- \\PAGI\\Autoloader\\Autoloader -->
<g id="node5" class="node"><title>\\PAGI\\Autoloader\\Autoloader</title>
<a xlink:href="db_Autoloader_Autoloader.html" xlink:title="Autoloader" target="_parent">
<polygon fill="none" stroke="black" points="590,-2143 506,-2143 506,-2107 590,-2107 590,-2143"/>
<text text-anchor="middle" x="548" y="-2121.6" font-family="Courier,monospace" font-size="11.00">Autoloader</text>
</a>
</g>
<!-- \\PAGI\\CDR\\Impl\\CDRFacade -->
<g id="node8" class="node"><title>\\PAGI\\CDR\\Impl\\CDRFacade</title>
<a xlink:href="db_CDR_Impl_CDRFacade.html" xlink:title="CDRFacade" target="_parent">
<polygon fill="none" stroke="black" points="586,-2033 510,-2033 510,-1997 586,-1997 586,-2033"/>
<text text-anchor="middle" x="548" y="-2011.6" font-family="Courier,monospace" font-size="11.00">CDRFacade</text>
</a>
</g>
<!-- \\PAGI\\CDR\\ICDR -->
<g id="node9" class="node"><title>\\PAGI\\CDR\\ICDR</title>
<a xlink:href="db_CDR_ICDR.html" xlink:title="ICDR" target="_parent">
<polygon fill="none" stroke="black" points="575,-1979 521,-1979 521,-1943 575,-1943 575,-1979"/>
<text text-anchor="middle" x="548" y="-1957.6" font-family="Courier,monospace" font-size="11.00">ICDR</text>
</a>
</g>
<!-- \\PAGI\\CallSpool\\Exception\\CallSpoolException -->
<g id="node13" class="node"><title>\\PAGI\\CallSpool\\Exception\\CallSpoolException</title>
<a xlink:href="db_CallSpool_Exception_CallSpoolException.html" xlink:title="CallSpoolException" target="_parent">
<polygon fill="none" stroke="black" points="617,-1869 479,-1869 479,-1833 617,-1833 617,-1869"/>
<text text-anchor="middle" x="548" y="-1847.6" font-family="Courier,monospace" font-size="11.00">CallSpoolException</text>
</a>
</g>
<!-- \\PAGI\\Exception\\PAGIException -->
<g id="node23" class="node"><title>\\PAGI\\Exception\\PAGIException</title>
<a xlink:href="db_Exception_PAGIException.html" xlink:title="PAGIException" target="_parent">
<polygon fill="none" stroke="black" points="349,-1464 245,-1464 245,-1428 349,-1428 349,-1464"/>
<text text-anchor="middle" x="297" y="-1442.6" font-family="Courier,monospace" font-size="11.00">PAGIException</text>
</a>
</g>
<!-- \\PAGI\\CallSpool\\Exception\\CallSpoolException&#45;&gt;\\PAGI\\Exception\\PAGIException -->
<g id="edge63" class="edge"><title>\\PAGI\\CallSpool\\Exception\\CallSpoolException&#45;&gt;\\PAGI\\Exception\\PAGIException</title>
<path fill="none" stroke="black" d="M478.765,-1841.34C465.376,-1836.88 452.321,-1830.4 442,-1821 336.935,-1725.29 307.273,-1544.61 299.532,-1474.67"/>
<polygon fill="none" stroke="black" points="302.983,-1474.01 298.47,-1464.42 296.02,-1474.73 302.983,-1474.01"/>
</g>
<!-- \\PAGI\\CallSpool\\Impl\\CallSpoolImpl -->
<g id="node15" class="node"><title>\\PAGI\\CallSpool\\Impl\\CallSpoolImpl</title>
<a xlink:href="db_CallSpool_Impl_CallSpoolImpl.html" xlink:title="CallSpoolImpl" target="_parent">
<polygon fill="none" stroke="black" points="600,-1788 496,-1788 496,-1752 600,-1752 600,-1788"/>
<text text-anchor="middle" x="548" y="-1766.6" font-family="Courier,monospace" font-size="11.00">CallSpoolImpl</text>
</a>
</g>
<!-- \\PAGI\\CallSpool\\CallFile -->
<g id="node16" class="node"><title>\\PAGI\\CallSpool\\CallFile</title>
<a xlink:href="db_CallSpool_CallFile.html" xlink:title="CallFile" target="_parent">
<polygon fill="none" stroke="black" points="583,-1734 513,-1734 513,-1698 583,-1698 583,-1734"/>
<text text-anchor="middle" x="548" y="-1712.6" font-family="Courier,monospace" font-size="11.00">CallFile</text>
</a>
</g>
<!-- \\PAGI\\CallSpool\\ICallSpool -->
<g id="node17" class="node"><title>\\PAGI\\CallSpool\\ICallSpool</title>
<a xlink:href="db_CallSpool_ICallSpool.html" xlink:title="ICallSpool" target="_parent">
<polygon fill="none" stroke="black" points="590,-1680 506,-1680 506,-1644 590,-1644 590,-1680"/>
<text text-anchor="middle" x="548" y="-1658.6" font-family="Courier,monospace" font-size="11.00">ICallSpool</text>
</a>
</g>
<!-- \\PAGI\\Exception\\SoundFileException -->
<g id="node19" class="node"><title>\\PAGI\\Exception\\SoundFileException</title>
<a xlink:href="db_Exception_SoundFileException.html" xlink:title="SoundFileException" target="_parent">
<polygon fill="none" stroke="black" points="617,-1599 479,-1599 479,-1563 617,-1563 617,-1599"/>
<text text-anchor="middle" x="548" y="-1577.6" font-family="Courier,monospace" font-size="11.00">SoundFileException</text>
</a>
</g>
<!-- \\PAGI\\Exception\\SoundFileException&#45;&gt;\\PAGI\\Exception\\PAGIException -->
<g id="edge49" class="edge"><title>\\PAGI\\Exception\\SoundFileException&#45;&gt;\\PAGI\\Exception\\PAGIException</title>
<path fill="none" stroke="black" d="M478.762,-1567.53C466.22,-1563.93 453.486,-1559.47 442,-1554 396.611,-1532.37 351.251,-1495.52 323.656,-1470.97"/>
<polygon fill="none" stroke="black" points="325.791,-1468.18 316.02,-1464.08 321.104,-1473.38 325.791,-1468.18"/>
</g>
<!-- \\PAGI\\Exception\\DatabaseInvalidEntryException -->
<g id="node20" class="node"><title>\\PAGI\\Exception\\DatabaseInvalidEntryException</title>
<a xlink:href="db_Exception_DatabaseInvalidEntryException.html" xlink:title="DatabaseInvalidEntryException" target="_parent">
<polygon fill="none" stroke="black" points="654,-1545 442,-1545 442,-1509 654,-1509 654,-1545"/>
<text text-anchor="middle" x="548" y="-1523.6" font-family="Courier,monospace" font-size="11.00">DatabaseInvalidEntryException</text>
</a>
</g>
<!-- \\PAGI\\Exception\\DatabaseInvalidEntryException&#45;&gt;\\PAGI\\Exception\\PAGIException -->
<g id="edge51" class="edge"><title>\\PAGI\\Exception\\DatabaseInvalidEntryException&#45;&gt;\\PAGI\\Exception\\PAGIException</title>
<path fill="none" stroke="black" d="M473.013,-1508.97C462.547,-1506.14 451.969,-1503.12 442,-1500 411.629,-1490.51 378.32,-1478.24 351.294,-1467.79"/>
<polygon fill="none" stroke="black" points="352.227,-1464.4 341.638,-1464.04 349.688,-1470.92 352.227,-1464.4"/>
</g>
<!-- \\PAGI\\Exception\\InvalidCommandException -->
<g id="node21" class="node"><title>\\PAGI\\Exception\\InvalidCommandException</title>
<a xlink:href="db_Exception_InvalidCommandException.html" xlink:title="InvalidCommandException" target="_parent">
<polygon fill="none" stroke="black" points="633,-1491 463,-1491 463,-1455 633,-1455 633,-1491"/>
<text text-anchor="middle" x="548" y="-1469.6" font-family="Courier,monospace" font-size="11.00">InvalidCommandException</text>
</a>
</g>
<!-- \\PAGI\\Exception\\InvalidCommandException&#45;&gt;\\PAGI\\Exception\\PAGIException -->
<g id="edge53" class="edge"><title>\\PAGI\\Exception\\InvalidCommandException&#45;&gt;\\PAGI\\Exception\\PAGIException</title>
<path fill="none" stroke="black" d="M462.322,-1463.78C428.51,-1460.15 390.395,-1456.05 359.291,-1452.7"/>
<polygon fill="none" stroke="black" points="359.345,-1449.19 349.028,-1451.6 358.596,-1456.15 359.345,-1449.19"/>
</g>
<!-- \\PAGI\\Exception\\RecordException -->
<g id="node22" class="node"><title>\\PAGI\\Exception\\RecordException</title>
<a xlink:href="db_Exception_RecordException.html" xlink:title="RecordException" target="_parent">
<polygon fill="none" stroke="black" points="606,-1437 490,-1437 490,-1401 606,-1401 606,-1437"/>
<text text-anchor="middle" x="548" y="-1415.6" font-family="Courier,monospace" font-size="11.00">RecordException</text>
</a>
</g>
<!-- \\PAGI\\Exception\\RecordException&#45;&gt;\\PAGI\\Exception\\PAGIException -->
<g id="edge55" class="edge"><title>\\PAGI\\Exception\\RecordException&#45;&gt;\\PAGI\\Exception\\PAGIException</title>
<path fill="none" stroke="black" d="M489.468,-1425.3C450.423,-1429.5 399.147,-1435.01 359.339,-1439.29"/>
<polygon fill="none" stroke="black" points="358.788,-1435.83 349.22,-1440.38 359.537,-1442.79 358.788,-1435.83"/>
</g>
<!-- \\Exception -->
<g id="node82" class="node"><title>\\Exception</title>
<ellipse fill="none" stroke="black" cx="91" cy="-18" rx="59.8749" ry="18"/>
<text text-anchor="middle" x="91" y="-13.4" font-family="Times Roman,serif" font-size="14.00" fill="gray">\Exception</text>
</g>
<!-- \\PAGI\\Exception\\PAGIException&#45;&gt;\\Exception -->
<g id="edge57" class="edge"><title>\\PAGI\\Exception\\PAGIException&#45;&gt;\\Exception</title>
<path fill="none" stroke="black" d="M294.244,-1427.65C284.515,-1362.81 250.91,-1138.38 224,-953 172.034,-595.002 110.852,-159.583 94.9385,-46.1076"/>
<polygon fill="none" stroke="black" points="98.3963,-45.5616 93.5417,-36.1445 91.4641,-46.5336 98.3963,-45.5616"/>
</g>
<!-- \\PAGI\\Exception\\ChannelDownException -->
<g id="node24" class="node"><title>\\PAGI\\Exception\\ChannelDownException</title>
<a xlink:href="db_Exception_ChannelDownException.html" xlink:title="ChannelDownException" target="_parent">
<polygon fill="none" stroke="black" points="623,-1383 473,-1383 473,-1347 623,-1347 623,-1383"/>
<text text-anchor="middle" x="548" y="-1361.6" font-family="Courier,monospace" font-size="11.00">ChannelDownException</text>
</a>
</g>
<!-- \\PAGI\\Exception\\ChannelDownException&#45;&gt;\\PAGI\\Exception\\PAGIException -->
<g id="edge59" class="edge"><title>\\PAGI\\Exception\\ChannelDownException&#45;&gt;\\PAGI\\Exception\\PAGIException</title>
<path fill="none" stroke="black" d="M473.013,-1383.03C462.547,-1385.86 451.969,-1388.88 442,-1392 411.629,-1401.49 378.32,-1413.76 351.294,-1424.21"/>
<polygon fill="none" stroke="black" points="349.688,-1421.08 341.638,-1427.96 352.227,-1427.6 349.688,-1421.08"/>
</g>
<!-- \\PAGI\\Exception\\ExecuteCommandException -->
<g id="node25" class="node"><title>\\PAGI\\Exception\\ExecuteCommandException</title>
<a xlink:href="db_Exception_ExecuteCommandException.html" xlink:title="ExecuteCommandException" target="_parent">
<polygon fill="none" stroke="black" points="633,-1329 463,-1329 463,-1293 633,-1293 633,-1329"/>
<text text-anchor="middle" x="548" y="-1307.6" font-family="Courier,monospace" font-size="11.00">ExecuteCommandException</text>
</a>
</g>
<!-- \\PAGI\\Exception\\ExecuteCommandException&#45;&gt;\\PAGI\\Exception\\PAGIException -->
<g id="edge61" class="edge"><title>\\PAGI\\Exception\\ExecuteCommandException&#45;&gt;\\PAGI\\Exception\\PAGIException</title>
<path fill="none" stroke="black" d="M464.158,-1329.06C456.525,-1331.68 449.028,-1334.65 442,-1338 396.611,-1359.63 351.251,-1396.48 323.656,-1421.03"/>
<polygon fill="none" stroke="black" points="321.104,-1418.62 316.02,-1427.92 325.791,-1423.82 321.104,-1418.62"/>
</g>
<!-- \\PAGI\\CallerId\\Impl\\CallerIdFacade -->
<g id="node28" class="node"><title>\\PAGI\\CallerId\\Impl\\CallerIdFacade</title>
<a xlink:href="db_CallerId_Impl_CallerIdFacade.html" xlink:title="CallerIdFacade" target="_parent">
<polygon fill="none" stroke="black" points="603,-1219 493,-1219 493,-1183 603,-1183 603,-1219"/>
<text text-anchor="middle" x="548" y="-1197.6" font-family="Courier,monospace" font-size="11.00">CallerIdFacade</text>
</a>
</g>
<!-- \\PAGI\\CallerId\\ICallerId -->
<g id="node29" class="node"><title>\\PAGI\\CallerId\\ICallerId</title>
<a xlink:href="db_CallerId_ICallerId.html" xlink:title="ICallerId" target="_parent">
<polygon fill="none" stroke="black" points="586,-1165 510,-1165 510,-1129 586,-1129 586,-1165"/>
<text text-anchor="middle" x="548" y="-1143.6" font-family="Courier,monospace" font-size="11.00">ICallerId</text>
</a>
</g>
<!-- \\PAGI\\ChannelVariables\\Impl\\ChannelVariablesFacade -->
<g id="node32" class="node"><title>\\PAGI\\ChannelVariables\\Impl\\ChannelVariablesFacade</title>
<a xlink:href="db_ChannelVariables_Impl_ChannelVariablesFacade.html" xlink:title="ChannelVariablesFacade" target="_parent">
<polygon fill="none" stroke="black" points="630,-1055 466,-1055 466,-1019 630,-1019 630,-1055"/>
<text text-anchor="middle" x="548" y="-1033.6" font-family="Courier,monospace" font-size="11.00">ChannelVariablesFacade</text>
</a>
</g>
<!-- \\PAGI\\ChannelVariables\\IChannelVariables -->
<g id="node33" class="node"><title>\\PAGI\\ChannelVariables\\IChannelVariables</title>
<a xlink:href="db_ChannelVariables_IChannelVariables.html" xlink:title="IChannelVariables" target="_parent">
<polygon fill="none" stroke="black" points="613,-1001 483,-1001 483,-965 613,-965 613,-1001"/>
<text text-anchor="middle" x="548" y="-979.6" font-family="Courier,monospace" font-size="11.00">IChannelVariables</text>
</a>
</g>
<!-- \\PAGI\\Client\\Impl\\ClientImpl -->
<g id="node36" class="node"><title>\\PAGI\\Client\\Impl\\ClientImpl</title>
<a xlink:href="db_Client_Impl_ClientImpl.html" xlink:title="ClientImpl" target="_parent">
<polygon fill="none" stroke="black" points="590,-891 506,-891 506,-855 590,-855 590,-891"/>
<text text-anchor="middle" x="548" y="-869.6" font-family="Courier,monospace" font-size="11.00">ClientImpl</text>
</a>
</g>
<!-- \\PAGI\\Client\\AbstractClient -->
<g id="node51" class="node"><title>\\PAGI\\Client\\AbstractClient</title>
<a xlink:href="db_Client_AbstractClient.html" xlink:title="«abstract»&lt;br/&gt;AbstractClient" target="_parent">
<polygon fill="none" stroke="black" points="353,-891 241,-891 241,-855 353,-855 353,-891"/>
<text text-anchor="start" x="263" y="-878.433" font-family="Courier,monospace" font-size="11.00">«abstract»</text>
<text text-anchor="start" x="249" y="-865.233" font-family="Courier,monospace" font-size="11.00">AbstractClient</text>
</a>
</g>
<!-- \\PAGI\\Client\\Impl\\ClientImpl&#45;&gt;\\PAGI\\Client\\AbstractClient -->
<g id="edge47" class="edge"><title>\\PAGI\\Client\\Impl\\ClientImpl&#45;&gt;\\PAGI\\Client\\AbstractClient</title>
<path fill="none" stroke="black" d="M505.988,-873C467.194,-873 408.922,-873 363.757,-873"/>
<polygon fill="none" stroke="black" points="363.749,-869.5 353.749,-873 363.749,-876.5 363.749,-869.5"/>
</g>
<!-- \\PAGI\\Client\\Result\\PlayResult -->
<g id="node38" class="node"><title>\\PAGI\\Client\\Result\\PlayResult</title>
<a xlink:href="db_Client_Result_PlayResult.html" xlink:title="PlayResult" target="_parent">
<polygon fill="none" stroke="black" points="590,-810 506,-810 506,-774 590,-774 590,-810"/>
<text text-anchor="middle" x="548" y="-788.6" font-family="Courier,monospace" font-size="11.00">PlayResult</text>
</a>
</g>
<!-- \\PAGI\\Client\\Result\\ReadResultDecorator -->
<g id="node46" class="node"><title>\\PAGI\\Client\\Result\\ReadResultDecorator</title>
<a xlink:href="db_Client_Result_ReadResultDecorator.html" xlink:title="«abstract»&lt;br/&gt;ReadResultDecorator" target="_parent">
<polygon fill="none" stroke="black" points="369,-810 225,-810 225,-774 369,-774 369,-810"/>
<text text-anchor="start" x="263" y="-797.433" font-family="Courier,monospace" font-size="11.00">«abstract»</text>
<text text-anchor="start" x="233" y="-784.233" font-family="Courier,monospace" font-size="11.00">ReadResultDecorator</text>
</a>
</g>
<!-- \\PAGI\\Client\\Result\\PlayResult&#45;&gt;\\PAGI\\Client\\Result\\ReadResultDecorator -->
<g id="edge31" class="edge"><title>\\PAGI\\Client\\Result\\PlayResult&#45;&gt;\\PAGI\\Client\\Result\\ReadResultDecorator</title>
<path fill="none" stroke="black" d="M505.988,-792C471.621,-792 421.967,-792 379.682,-792"/>
<polygon fill="none" stroke="black" points="379.665,-788.5 369.665,-792 379.665,-795.5 379.665,-788.5"/>
</g>
<!-- \\PAGI\\Client\\Result\\IResult -->
<g id="node39" class="node"><title>\\PAGI\\Client\\Result\\IResult</title>
<a xlink:href="db_Client_Result_IResult.html" xlink:title="IResult" target="_parent">
<polygon fill="none" stroke="black" points="329,-648 265,-648 265,-612 329,-612 329,-648"/>
<text text-anchor="middle" x="297" y="-626.6" font-family="Courier,monospace" font-size="11.00">IResult</text>
</a>
</g>
<!-- \\PAGI\\Client\\Result\\DialResult -->
<g id="node40" class="node"><title>\\PAGI\\Client\\Result\\DialResult</title>
<a xlink:href="db_Client_Result_DialResult.html" xlink:title="DialResult" target="_parent">
<polygon fill="none" stroke="black" points="590,-594 506,-594 506,-558 590,-558 590,-594"/>
<text text-anchor="middle" x="548" y="-572.6" font-family="Courier,monospace" font-size="11.00">DialResult</text>
</a>
</g>
<!-- \\PAGI\\Client\\Result\\ExecResult -->
<g id="node41" class="node"><title>\\PAGI\\Client\\Result\\ExecResult</title>
<a xlink:href="db_Client_Result_ExecResult.html" xlink:title="ExecResult" target="_parent">
<polygon fill="none" stroke="black" points="339,-594 255,-594 255,-558 339,-558 339,-594"/>
<text text-anchor="middle" x="297" y="-572.6" font-family="Courier,monospace" font-size="11.00">ExecResult</text>
</a>
</g>
<!-- \\PAGI\\Client\\Result\\DialResult&#45;&gt;\\PAGI\\Client\\Result\\ExecResult -->
<g id="edge33" class="edge"><title>\\PAGI\\Client\\Result\\DialResult&#45;&gt;\\PAGI\\Client\\Result\\ExecResult</title>
<path fill="none" stroke="black" d="M505.988,-576C462.913,-576 395.822,-576 349.326,-576"/>
<polygon fill="none" stroke="black" points="349.149,-572.5 339.149,-576 349.149,-579.5 349.149,-572.5"/>
</g>
<!-- \\PAGI\\Client\\Result\\ResultDecorator -->
<g id="node43" class="node"><title>\\PAGI\\Client\\Result\\ResultDecorator</title>
<a xlink:href="db_Client_Result_ResultDecorator.html" xlink:title="«abstract»&lt;br/&gt;ResultDecorator" target="_parent">
<polygon fill="none" stroke="black" points="150,-702 32,-702 32,-666 150,-666 150,-702"/>
<text text-anchor="start" x="57" y="-689.433" font-family="Courier,monospace" font-size="11.00">«abstract»</text>
<text text-anchor="start" x="40.5" y="-676.233" font-family="Courier,monospace" font-size="11.00">ResultDecorator</text>
</a>
</g>
<!-- \\PAGI\\Client\\Result\\ExecResult&#45;&gt;\\PAGI\\Client\\Result\\ResultDecorator -->
<g id="edge35" class="edge"><title>\\PAGI\\Client\\Result\\ExecResult&#45;&gt;\\PAGI\\Client\\Result\\ResultDecorator</title>
<path fill="none" stroke="black" d="M254.995,-588.829C244.558,-592.741 233.614,-597.491 224,-603 190.769,-622.043 188.194,-638.889 153.409,-660.65"/>
<polygon fill="none" stroke="black" points="151.217,-657.88 144.39,-665.982 154.779,-663.906 151.217,-657.88"/>
</g>
<!-- \\PAGI\\Client\\Result\\DataReadResult -->
<g id="node42" class="node"><title>\\PAGI\\Client\\Result\\DataReadResult</title>
<a xlink:href="db_Client_Result_DataReadResult.html" xlink:title="DataReadResult" target="_parent">
<polygon fill="none" stroke="black" points="603,-756 493,-756 493,-720 603,-720 603,-756"/>
<text text-anchor="middle" x="548" y="-734.6" font-family="Courier,monospace" font-size="11.00">DataReadResult</text>
</a>
</g>
<!-- \\PAGI\\Client\\Result\\DigitReadResult -->
<g id="node47" class="node"><title>\\PAGI\\Client\\Result\\DigitReadResult</title>
<a xlink:href="db_Client_Result_DigitReadResult.html" xlink:title="DigitReadResult" target="_parent">
<polygon fill="none" stroke="black" points="355,-702 239,-702 239,-666 355,-666 355,-702"/>
<text text-anchor="middle" x="297" y="-680.6" font-family="Courier,monospace" font-size="11.00">DigitReadResult</text>
</a>
</g>
<!-- \\PAGI\\Client\\Result\\DataReadResult&#45;&gt;\\PAGI\\Client\\Result\\DigitReadResult -->
<g id="edge37" class="edge"><title>\\PAGI\\Client\\Result\\DataReadResult&#45;&gt;\\PAGI\\Client\\Result\\DigitReadResult</title>
<path fill="none" stroke="black" d="M492.295,-726.016C454.882,-717.967 405.334,-707.307 365.508,-698.739"/>
<polygon fill="none" stroke="black" points="366.118,-695.29 355.606,-696.608 364.646,-702.133 366.118,-695.29"/>
</g>
<!-- \\PAGI\\Client\\Result\\Result -->
<g id="node44" class="node"><title>\\PAGI\\Client\\Result\\Result</title>
<a xlink:href="db_Client_Result_Result.html" xlink:title="Result" target="_parent">
<polygon fill="none" stroke="black" points="576,-648 520,-648 520,-612 576,-612 576,-648"/>
<text text-anchor="middle" x="548" y="-626.6" font-family="Courier,monospace" font-size="11.00">Result</text>
</a>
</g>
<!-- \\PAGI\\Client\\Result\\FaxResult -->
<g id="node45" class="node"><title>\\PAGI\\Client\\Result\\FaxResult</title>
<a xlink:href="db_Client_Result_FaxResult.html" xlink:title="FaxResult" target="_parent">
<polygon fill="none" stroke="black" points="586,-540 510,-540 510,-504 586,-504 586,-540"/>
<text text-anchor="middle" x="548" y="-518.6" font-family="Courier,monospace" font-size="11.00">FaxResult</text>
</a>
</g>
<!-- \\PAGI\\Client\\Result\\FaxResult&#45;&gt;\\PAGI\\Client\\Result\\ExecResult -->
<g id="edge39" class="edge"><title>\\PAGI\\Client\\Result\\FaxResult&#45;&gt;\\PAGI\\Client\\Result\\ExecResult</title>
<path fill="none" stroke="black" d="M509.331,-530.319C466.323,-539.572 396.63,-554.566 348.9,-564.834"/>
<polygon fill="none" stroke="black" points="348.106,-561.425 339.066,-566.95 349.578,-568.268 348.106,-561.425"/>
</g>
<!-- \\PAGI\\Client\\Result\\DigitReadResult&#45;&gt;\\PAGI\\Client\\Result\\ResultDecorator -->
<g id="edge41" class="edge"><title>\\PAGI\\Client\\Result\\DigitReadResult&#45;&gt;\\PAGI\\Client\\Result\\ResultDecorator</title>
<path fill="none" stroke="black" d="M238.244,-684C213.995,-684 185.707,-684 160.443,-684"/>
<polygon fill="none" stroke="black" points="160.191,-680.5 150.191,-684 160.191,-687.5 160.191,-680.5"/>
</g>
<!-- \\PAGI\\Client\\Result\\IReadResult -->
<g id="node48" class="node"><title>\\PAGI\\Client\\Result\\IReadResult</title>
<a xlink:href="db_Client_Result_IReadResult.html" xlink:title="IReadResult" target="_parent">
<polygon fill="none" stroke="black" points="593,-702 503,-702 503,-666 593,-666 593,-702"/>
<text text-anchor="middle" x="548" y="-680.6" font-family="Courier,monospace" font-size="11.00">IReadResult</text>
</a>
</g>
<!-- \\PAGI\\Client\\Result\\IReadResult&#45;&gt;\\PAGI\\Client\\Result\\IResult -->
<g id="edge43" class="edge"><title>\\PAGI\\Client\\Result\\IReadResult&#45;&gt;\\PAGI\\Client\\Result\\IResult</title>
<path fill="none" stroke="black" d="M502.255,-674.158C455.816,-664.168 384.501,-648.825 339.331,-639.107"/>
<polygon fill="none" stroke="black" points="339.787,-635.625 329.275,-636.944 338.315,-642.469 339.787,-635.625"/>
</g>
<!-- \\PAGI\\Client\\Result\\RecordResult -->
<g id="node49" class="node"><title>\\PAGI\\Client\\Result\\RecordResult</title>
<a xlink:href="db_Client_Result_RecordResult.html" xlink:title="RecordResult" target="_parent">
<polygon fill="none" stroke="black" points="345,-756 249,-756 249,-720 345,-720 345,-756"/>
<text text-anchor="middle" x="297" y="-734.6" font-family="Courier,monospace" font-size="11.00">RecordResult</text>
</a>
</g>
<!-- \\PAGI\\Client\\Result\\RecordResult&#45;&gt;\\PAGI\\Client\\Result\\ResultDecorator -->
<g id="edge45" class="edge"><title>\\PAGI\\Client\\Result\\RecordResult&#45;&gt;\\PAGI\\Client\\Result\\ResultDecorator</title>
<path fill="none" stroke="black" d="M248.442,-725.271C222.16,-718.382 189.241,-709.753 160.308,-702.168"/>
<polygon fill="none" stroke="black" points="160.819,-698.684 150.258,-699.534 159.044,-705.455 160.819,-698.684"/>
</g>
<!-- \\PAGI\\Client\\IClient -->
<g id="node50" class="node"><title>\\PAGI\\Client\\IClient</title>
<a xlink:href="db_Client_IClient.html" xlink:title="IClient" target="_parent">
<polygon fill="none" stroke="black" points="580,-486 516,-486 516,-450 580,-450 580,-486"/>
<text text-anchor="middle" x="548" y="-464.6" font-family="Courier,monospace" font-size="11.00">IClient</text>
</a>
</g>
<!-- \\PAGI\\Client\\ChannelStatus -->
<g id="node52" class="node"><title>\\PAGI\\Client\\ChannelStatus</title>
<a xlink:href="db_Client_ChannelStatus.html" xlink:title="ChannelStatus" target="_parent">
<polygon fill="none" stroke="black" points="600,-432 496,-432 496,-396 600,-396 600,-432"/>
<text text-anchor="middle" x="548" y="-410.6" font-family="Courier,monospace" font-size="11.00">ChannelStatus</text>
</a>
</g>
<!-- \\PAGI\\DialDescriptor\\SIPDialDescriptor -->
<g id="node55" class="node"><title>\\PAGI\\DialDescriptor\\SIPDialDescriptor</title>
<a xlink:href="db_DialDescriptor_SIPDialDescriptor.html" xlink:title="SIPDialDescriptor" target="_parent">
<polygon fill="none" stroke="black" points="613,-351 483,-351 483,-315 613,-315 613,-351"/>
<text text-anchor="middle" x="548" y="-329.6" font-family="Courier,monospace" font-size="11.00">SIPDialDescriptor</text>
</a>
</g>
<!-- \\PAGI\\DialDescriptor\\DialDescriptor -->
<g id="node56" class="node"><title>\\PAGI\\DialDescriptor\\DialDescriptor</title>
<a xlink:href="db_DialDescriptor_DialDescriptor.html" xlink:title="«abstract»&lt;br/&gt;DialDescriptor" target="_parent">
<polygon fill="none" stroke="black" points="353,-324 241,-324 241,-288 353,-288 353,-324"/>
<text text-anchor="start" x="263" y="-311.433" font-family="Courier,monospace" font-size="11.00">«abstract»</text>
<text text-anchor="start" x="249.5" y="-298.233" font-family="Courier,monospace" font-size="11.00">DialDescriptor</text>
</a>
</g>
<!-- \\PAGI\\DialDescriptor\\SIPDialDescriptor&#45;&gt;\\PAGI\\DialDescriptor\\DialDescriptor -->
<g id="edge27" class="edge"><title>\\PAGI\\DialDescriptor\\SIPDialDescriptor&#45;&gt;\\PAGI\\DialDescriptor\\DialDescriptor</title>
<path fill="none" stroke="black" d="M482.381,-325.941C445.736,-322 400.195,-317.101 363.422,-313.145"/>
<polygon fill="none" stroke="black" points="363.615,-309.646 353.298,-312.056 362.866,-316.605 363.615,-309.646"/>
</g>
<!-- \\PAGI\\DialDescriptor\\DAHDIDialDescriptor -->
<g id="node57" class="node"><title>\\PAGI\\DialDescriptor\\DAHDIDialDescriptor</title>
<a xlink:href="db_DialDescriptor_DAHDIDialDescriptor.html" xlink:title="DAHDIDialDescriptor" target="_parent">
<polygon fill="none" stroke="black" points="620,-297 476,-297 476,-261 620,-261 620,-297"/>
<text text-anchor="middle" x="548" y="-275.6" font-family="Courier,monospace" font-size="11.00">DAHDIDialDescriptor</text>
</a>
</g>
<!-- \\PAGI\\DialDescriptor\\DAHDIDialDescriptor&#45;&gt;\\PAGI\\DialDescriptor\\DialDescriptor -->
<g id="edge29" class="edge"><title>\\PAGI\\DialDescriptor\\DAHDIDialDescriptor&#45;&gt;\\PAGI\\DialDescriptor\\DialDescriptor</title>
<path fill="none" stroke="black" d="M475.737,-286.773C440.279,-290.587 397.862,-295.15 363.249,-298.874"/>
<polygon fill="none" stroke="black" points="362.809,-295.401 353.241,-299.95 363.558,-302.361 362.809,-295.401"/>
</g>
<!-- \\PAGI\\Logger\\Asterisk\\Impl\\AsteriskLoggerImpl -->
<g id="node61" class="node"><title>\\PAGI\\Logger\\Asterisk\\Impl\\AsteriskLoggerImpl</title>
<a xlink:href="db_Logger_Asterisk_Impl_AsteriskLoggerImpl.html" xlink:title="AsteriskLoggerImpl" target="_parent">
<polygon fill="none" stroke="black" points="617,-158 479,-158 479,-122 617,-122 617,-158"/>
<text text-anchor="middle" x="548" y="-136.6" font-family="Courier,monospace" font-size="11.00">AsteriskLoggerImpl</text>
</a>
</g>
<!-- \\PAGI\\Logger\\Asterisk\\IAsteriskLogger -->
<g id="node62" class="node"><title>\\PAGI\\Logger\\Asterisk\\IAsteriskLogger</title>
<a xlink:href="db_Logger_Asterisk_IAsteriskLogger.html" xlink:title="IAsteriskLogger" target="_parent">
<polygon fill="none" stroke="black" points="606,-104 490,-104 490,-68 606,-68 606,-104"/>
<text text-anchor="middle" x="548" y="-82.6" font-family="Courier,monospace" font-size="11.00">IAsteriskLogger</text>
</a>
</g>
</g>
</svg>
